3_states
version=1
nRows=23
nColumns=17
inDegrees=yes

# SIMM Motion File Header:
name 3_states
datacolumns 17
datarows 23
otherdata 1
range 0.203868 0.232373
endheader
time	/jointset/r_shoulder/r_shoulder_elev/value	/jointset/r_shoulder/r_shoulder_elev/speed	/jointset/r_elbow/r_elbow_flex/value	/jointset/r_elbow/r_elbow_flex/speed	/forceset/TRIlong/activation	/forceset/TRIlong/fiber_length	/forceset/TRIlat/activation	/forceset/TRIlat/fiber_length	/forceset/TRImed/activation	/forceset/TRImed/fiber_length	/forceset/BIClong/activation	/forceset/BIClong/fiber_length	/forceset/BICshort/activation	/forceset/BICshort/fiber_length	/forceset/BRA/activation	/forceset/BRA/fiber_length
      0.203868	     -0.002042	      0.017289	    111.480942	   -139.790170	      0.020000	      0.176797	      0.546345	      0.110059	      0.550066	      0.105114	      0.380767	      0.076760	      0.020000	      0.078962	      0.020000	      0.059698
      0.205163	     -0.002019	      0.019191	    111.299807	   -139.800426	      0.020000	      0.176737	      0.545876	      0.109998	      0.549522	      0.105053	      0.379256	      0.076917	      0.020000	      0.079113	      0.020000	      0.059770
      0.206459	     -0.001993	      0.019692	    111.118660	   -139.804544	      0.020000	      0.176678	      0.545426	      0.109936	      0.549002	      0.104992	      0.377799	      0.077074	      0.020000	      0.079264	      0.020000	      0.059849
      0.207755	     -0.001967	      0.020928	    110.937508	   -139.812917	      0.020000	      0.176618	      0.544995	      0.109875	      0.548503	      0.104931	      0.376395	      0.077231	      0.020000	      0.079416	      0.020000	      0.059921
      0.209050	     -0.001940	      0.020626	    110.756347	   -139.812905	      0.020000	      0.176559	      0.544582	      0.109814	      0.548025	      0.104870	      0.375041	      0.077388	      0.020000	      0.079567	      0.020000	      0.060000
      0.210346	     -0.001913	      0.020938	    110.575188	   -139.814689	      0.020000	      0.176500	      0.544185	      0.109753	      0.547566	      0.104809	      0.373720	      0.077545	      0.020000	      0.079719	      0.020000	      0.060072
      0.211642	     -0.001887	      0.019688	    110.394031	   -139.806749	      0.020000	      0.176440	      0.543776	      0.109692	      0.547104	      0.104748	      0.372229	      0.077702	      0.020000	      0.079870	      0.020000	      0.060151
      0.212938	     -0.001861	      0.019183	    110.212883	   -139.802488	      0.020000	      0.176381	      0.543373	      0.109630	      0.546652	      0.104687	      0.370702	      0.077859	      0.020000	      0.080022	      0.020000	      0.060223
      0.214233	     -0.001838	      0.017475	    110.031743	   -139.793326	      0.020000	      0.176321	      0.542986	      0.109569	      0.546219	      0.104626	      0.369229	      0.078017	      0.020000	      0.080174	      0.020000	      0.060302
      0.215529	     -0.001816	      0.016778	    109.850612	   -139.790765	      0.020000	      0.176262	      0.542616	      0.109508	      0.545805	      0.104565	      0.367809	      0.078175	      0.020000	      0.080326	      0.020000	      0.060375
      0.216825	     -0.001795	      0.015088	    109.669486	   -139.784250	      0.020000	      0.176203	      0.542262	      0.109447	      0.545408	      0.104504	      0.366440	      0.078333	      0.020000	      0.080478	      0.020000	      0.060453
      0.218121	     -0.001776	      0.014484	    109.488365	   -139.783545	      0.020000	      0.176143	      0.541922	      0.109385	      0.545028	      0.104442	      0.365118	      0.078490	      0.020000	      0.080630	      0.020000	      0.060526
      0.219416	     -0.001758	      0.012989	    109.307247	   -139.777848	      0.020000	      0.176084	      0.541597	      0.109324	      0.544663	      0.104381	      0.363844	      0.078648	      0.020000	      0.080782	      0.020000	      0.060604
      0.220712	     -0.001741	      0.012600	    109.126136	   -139.776258	      0.020000	      0.176024	      0.541260	      0.109263	      0.544281	      0.104320	      0.362575	      0.078805	      0.020000	      0.080935	      0.020000	      0.060677
      0.222008	     -0.001726	      0.011405	    108.945028	   -139.769130	      0.020000	      0.175965	      0.540773	      0.109201	      0.543702	      0.104259	      0.361105	      0.078963	      0.020000	      0.081087	      0.020000	      0.060755
      0.223303	     -0.001711	      0.011309	    108.763928	   -139.767731	      0.020000	      0.175905	      0.540292	      0.109140	      0.543127	      0.104198	      0.359664	      0.079121	      0.020000	      0.081240	      0.020000	      0.060828
      0.224599	     -0.001697	      0.010430	    108.582830	   -139.763661	      0.020000	      0.175846	      0.539831	      0.109079	      0.542577	      0.104137	      0.358274	      0.079280	      0.020000	      0.081392	      0.020000	      0.060906
      0.225895	     -0.001684	      0.010542	    108.401734	   -139.765709	      0.020000	      0.175786	      0.539389	      0.109017	      0.542050	      0.104076	      0.356932	      0.079438	      0.020000	      0.081545	      0.020000	      0.060979
      0.227191	     -0.001670	      0.009837	    108.220637	   -139.764441	      0.020000	      0.175727	      0.538966	      0.108956	      0.541546	      0.104015	      0.355638	      0.079597	      0.020000	      0.081698	      0.020000	      0.061057
      0.228486	     -0.001657	      0.010011	    108.039539	   -139.767481	      0.020000	      0.175668	      0.538560	      0.108895	      0.541062	      0.103954	      0.354388	      0.079755	      0.020000	      0.081851	      0.020000	      0.061130
      0.229782	     -0.001645	      0.009364	    107.858440	   -139.765676	      0.020000	      0.175608	      0.538172	      0.108834	      0.540599	      0.103893	      0.353181	      0.079913	      0.020000	      0.082003	      0.020000	      0.061208
      0.231078	     -0.001633	      0.009511	    107.677342	   -139.766191	      0.020000	      0.175549	      0.537731	      0.108772	      0.540079	      0.103831	      0.351913	      0.080071	      0.020000	      0.082156	      0.020000	      0.061281
      0.232373	     -0.001621	      0.008895	    107.496246	   -139.762099	      0.020000	      0.175489	      0.537190	      0.108711	      0.539451	      0.103770	      0.350514	      0.080230	      0.020000	      0.082310	      0.020000	      0.061359
